<?xml version="1.0" encoding="utf-8"?>
<!-- Decoded by svgb2svg converter version 1.1.0 -->
<!DOCTYPE svg PUBLIC "-//W3C//DTD SVG 1.0//EN" "http://www.w3.org/TR/2001/REC-SVG-20010904/DTD/svg10.dtd">
<svg xmlns="http://www.w3.org/2000/svg" baseProfile="tiny" height="100%" version="1.1" viewBox="0 0 100 100" width="100%">
  <rect fill="none" height="100" width="100"/>
  <linearGradient gradientUnits="userSpaceOnUse" id="XMLID_143_" x1="47.065" x2="71.6615" y1="10.2871" y2="78.0354">
    <stop offset="0" stop-color="#999999"/>
    <stop offset="0.2458" stop-color="#FFFFFF"/>
    <stop offset="0.2682" stop-color="#FFFFFF"/>
    <stop offset="1" stop-color="#333333"/>
  </linearGradient>
  <path d="M26.643,18.433L26.643,18.433L26.64,18.427C26.64,18.427,28.99,16.812,31.957,16.777L70.187,19.335C70.187,19.335,72.65,19.521,73.874,20.677C75,21.737,74.891,23.369,74.891,23.369L74.453,83.069C74.453,83.069,74.462,85.156,73.168,85.847C73.146,85.857,73.122,85.865,73.105,85.875C72.632,86.166,67.934,88.347,68,88.318C69.289,87.612,27.764,17.824,26.643,18.433z" fill="url(#XMLID_143_)"/>
  <path d="M29.294,17.794C29.294,17.794,27.334,17.829,26.222,18.709C24.97,19.704,24.946,21.907,24.946,21.907L24.493,73.909C24.493,73.909,24.367,75.91,25.275,77.325C26.009,78.467,27.617,79.16,27.617,79.16L64.548,88.424C64.548,88.424,66.792,89.0239,68.083,88.32C69.374,87.613,69.367,85.483,69.367,85.483L69.721,24.611C69.721,24.611,69.833,22.947,68.706,21.865C67.479,20.687,65.019,20.494,65.019,20.494L29.294,17.794z" fill="#FFFFFF"/>
  <linearGradient gradientUnits="userSpaceOnUse" id="XMLID_144_" x1="21.1065" x2="72.4065" y1="26.3433" y2="77.6433">
    <stop offset="0" stop-color="#F2F2F2"/>
    <stop offset="0.9944" stop-color="#808080"/>
  </linearGradient>
  <path d="M27.342,77.434C27.342,77.434,26.115,77.073,25.756,76.35C25.397,75.629,25.254,74.547,25.254,74.547L25.444,23.073C25.444,23.073,25.444,21.773,26.163,21.343C26.887,20.908,28.275,21.061,28.275,21.061L63.113,24.229C63.113,24.229,64.74,24.387,65.351,25.1C65.982,25.83,65.996,26.971,65.996,26.971L65.469,83.571C65.469,83.571,65.567,84.887,64.626,85.317C63.689,85.751,62.388,85.646,62.388,85.646L27.342,77.434z" fill="url(#XMLID_144_)"/>
  <path d="M30.212,60.653L30.212,71.449L38.896,73.66L38.896,62.396L30.212,60.653zM36.861,70.952L31.818,69.601L31.789,63.246L36.914,64.222L36.861,70.952z" fill="#333333"/>
  <path d="M30.212,46.805L30.212,57.458L38.896,59.243L38.896,47.979L30.212,46.805zM36.861,56.534L31.818,55.611L31.79,48.89L36.915,49.809L36.861,56.534z" fill="#333333"/>
  <path d="M30.212,32.955L30.212,43.254L38.896,44.4L38.896,33.452L30.212,32.955zM36.861,41.691L31.818,41.123L31.79,35.04L36.915,35.28L36.861,41.691z" fill="#333333"/>
  <polygon fill="#E80000" points="27.857 50.895 34.039 58.736 44.809 47.473 42.157 44.268 34.369 54.541 30.339 47.83"/>
  <polygon fill="#333333" points="42.652 37.23 42.626 39.42 58.013 41.598 58.033 39.239"/>
  <polygon fill="#333333" points="42.652 53.563 42.674 55.777 57.993 58.182 58.033 55.925"/>
  <polygon fill="#333333" points="42.652 68.307 42.674 70.578 57.993 73.502 58.033 71.373"/>
  <linearGradient gradientUnits="userSpaceOnUse" id="XMLID_145_" x1="46.8497" x2="46.8497" y1="26.4852" y2="15.0303">
    <stop offset="0" stop-color="#833500"/>
    <stop offset="1" stop-color="#FDFF1F"/>
  </linearGradient>
  <path d="M33.33,23.657C33.33,23.657,31.043,21.496,32.187,18.065C33.33,14.634,36.379,15.05,36.379,15.05L61.833,16.388C61.833,16.388,58.358,16.961,57.215,20.263C56.071,23.567,58.105,26.489,58.105,26.489L33.33,23.657z" fill="url(#XMLID_145_)"/>
  <path d="M58.311,26.52C55.004,23.949,55.885,16.19,61.086,16.365C64.735,16.49,64.786,18.827,64.786,18.827L59.326,18.325C59.326,18.325,57.667,20.016,57.58,21.661C57.507,22.987,57.959,23.948,57.959,23.948C57.959,23.948,58.322,26.531,58.311,26.52z"/>
  <linearGradient gradientUnits="userSpaceOnUse" id="XMLID_146_" x1="41.5089" x2="52.5936" y1="8.87" y2="19.9548">
    <stop offset="0" stop-color="#FDFF1F"/>
    <stop offset="1" stop-color="#620000"/>
  </linearGradient>
  <path d="M56.075,16.477L38.513,15.509L41.896,8.763C41.896,8.763,43.041,6.498,44.876,6.604L47.535,6.757C47.535,6.757,49.516,6.599,51.235,9.179L56.075,16.477z" fill="url(#XMLID_146_)"/>
  <ellipse cx="46.527" cy="12.595" fill="#322B00" rx="3.377" ry="3.199" transform="matrix(-0.6879 -0.7258 0.7258 -0.6879 69.3891 55.0295)"/>
</svg>
